<svg height="28" viewBox="0 0 28 28" width="28" xmlns="http://www.w3.org/2000/svg"><path d="m14 2c6.627417 0 12 5.372583 12 12s-5.372583 12-12 12-12-5.372583-12-12 5.372583-12 12-12zm0 10.5857864-4.29469748-4.29469744c-.16800807-.16800807-.29972753-.24721743-.44121479-.29010172-.14148726-.04288428-.28618313-.04288428-.4276704 0-.14148726.04288429-.27320672.12209365-.44121478.29010172l-.10411359.10411359c-.16800807.16800806-.24721743.29972752-.29010172.44121478-.04288428.14148727-.04288428.28618314 0 .4276704.04288429.14148726.12209365.27320672.29010172.44121479l4.29469744 4.29469748-4.29469744 4.2946975c-.16800807.1680081-.24721743.2997275-.29010172.4412148-.04288428.1414872-.04288428.2861831 0 .4276704.04288429.1414872.12209365.2732067.29010172.4412148l.10411359.1041135c.16800806.1680081.29972752.2472175.44121478.2901018.14148727.0428842.28618314.0428842.4276704 0 .14148726-.0428843.27320672-.1220937.44121479-.2901018l4.29469748-4.2946974 4.2946975 4.2946974c.1680081.1680081.2997275.2472175.4412148.2901018.1414872.0428842.2861831.0428842.4276704 0 .1414872-.0428843.2732067-.1220937.4412148-.2901018l.1041135-.1041135c.1680081-.1680081.2472175-.2997276.2901018-.4412148.0428842-.1414873.0428842-.2861832 0-.4276704-.0428843-.1414873-.1220937-.2732067-.2901018-.4412148l-4.2946974-4.2946975 4.2946974-4.29469748c.1680081-.16800807.2472175-.29972753.2901018-.44121479.0428842-.14148726.0428842-.28618313 0-.4276704-.0428843-.14148726-.1220937-.27320672-.2901018-.44121478l-.1041135-.10411359c-.1680081-.16800807-.2997276-.24721743-.4412148-.29010172-.1414873-.04288428-.2861832-.04288428-.4276704 0-.1414873.04288429-.2732067.12209365-.4412148.29010172z" fill="#141414" fill-rule="evenodd"/></svg>